<svg xmlns="http://www.w3.org/2000/svg" viewBox="0 0 512 512">
  <defs>
    <linearGradient id="bg" x1="0" y1="0" x2="1" y2="1">
      <stop offset="0%" stop-color="#165DFF"/>
      <stop offset="100%" stop-color="#36D399"/>
    </linearGradient>
  </defs>
  <rect width="512" height="512" rx="96" fill="url(#bg)"/>
  <g fill="#FFFFFF">
    <!-- 计算器外形 -->
    <rect x="148" y="110" width="216" height="300" rx="28" fill="#FFFFFF" opacity="0.15"/>
    <rect x="160" y="122" width="192" height="276" rx="22" fill="#FFFFFF"/>
    <!-- 显示屏 -->
    <rect x="176" y="140" width="160" height="60" rx="10" fill="#165DFF" opacity="0.12"/>
    <rect x="186" y="158" width="80" height="8" rx="4" fill="#165DFF"/>
    <rect x="186" y="172" width="50" height="6" rx="3" fill="#36D399"/>
    <!-- 按键 -->
    <g fill="#165DFF">
      <rect x="184" y="218" width="36" height="36" rx="8"/>
      <rect x="230" y="218" width="36" height="36" rx="8"/>
      <rect x="276" y="218" width="36" height="36" rx="8"/>
      <rect x="184" y="264" width="36" height="36" rx="8"/>
      <rect x="230" y="264" width="36" height="36" rx="8"/>
      <rect x="276" y="264" width="36" height="36" rx="8" fill="#36D399"/>
      <rect x="184" y="310" width="36" height="36" rx="8"/>
      <rect x="230" y="310" width="36" height="36" rx="8"/>
      <rect x="276" y="310" width="36" height="36" rx="8" fill="#36D399"/>
    </g>
    <!-- 文字"胶" -->
    <text x="256" y="400" text-anchor="middle" font-family="SimSun, Microsoft YaHei, sans-serif"
          font-size="72" font-weight="bold" fill="#165DFF">胶</text>
  </g>
</svg>
